# xmcd
#
# Track frame offsets:
#	150
#	6119
#	32963
#	56381
#	91337
#	117266
#	147197
#	167023
#	194967
#	206724
#	227344
#
# Disc length: 3445 seconds
#
# Revision: 0
# Processed by: cddbd v1.4PL0 Copyright (c) Steve Scherf et al.
# Submitted via: EasyCDDAExtractor 5.0.5.1
#
DISCID=940d730b
DTITLE=The Fujii - Anyway What Time Did You Get Up This Morning
DYEAR=2001
DGENRE=Blues
TTITLE0=Intro
TTITLE1=Floating in Darkness
TTITLE2=Time is a Vision
TTITLE3=A Shrike Growing on a Dead Tree
TTITLE4=Miss You... Midnight Train
TTITLE5=Moari Song
TTITLE6=Camel Song
TTITLE7=Junky Blues
TTITLE8=Sea of Rape Seed
TTITLE9=After the Wind
TTITLE10=Listen the Sound of the Creek
EXTD=
EXTT0=
EXTT1=
EXTT2=
EXTT3=
EXTT4=
EXTT5=
EXTT6=
EXTT7=
EXTT8=
EXTT9=
EXTT10=
PLAYORDER=
